<?xml version="1.0" standalone="no"?>
<!DOCTYPE svg PUBLIC "-//W3C//DTD SVG 20010904//EN"
 "http://www.w3.org/TR/2001/REC-SVG-20010904/DTD/svg10.dtd">
<svg version="1.0" xmlns="http://www.w3.org/2000/svg"
 width="700.000000pt" height="700.000000pt" viewBox="0 0 700.000000 700.000000"
 preserveAspectRatio="xMidYMid meet">
<metadata>
Created by potrace 1.14, written by Peter Selinger 2001-2017
</metadata>
<g transform="translate(0.000000,700.000000) scale(0.100000,-0.100000)"
fill="#000000" stroke="none">
<path d="M3437 6895 c-1 -1 -33 -5 -72 -8 -552 -48 -1097 -434 -1591 -1127
-106 -149 -284 -424 -284 -439 0 -4 498 -7 1108 -7 l1107 1 5 438 5 437 928
-928 928 -928 -928 -929 -928 -928 -5 438 -5 438 -1529 1 c-1006 1 -1533 -2
-1541 -9 -7 -5 -20 -37 -29 -70 -9 -33 -30 -105 -46 -160 -48 -167 -123 -479
-155 -640 -34 -176 -77 -445 -90 -570 -3 -27 -7 -70 -10 -95 -28 -268 -28
-680 1 -903 4 -30 38 -203 48 -242 29 -112 86 -246 137 -322 133 -198 319
-273 544 -220 118 28 283 116 420 224 145 114 332 308 507 528 75 94 265 365
322 462 26 43 65 107 87 142 21 34 39 64 39 66 0 1 22 40 48 86 27 46 75 135
107 196 l59 113 875 0 876 0 68 -128 c436 -822 922 -1408 1342 -1617 169 -83
292 -106 420 -77 203 46 351 228 441 547 12 43 44 209 49 254 3 31 9 90 14
131 9 74 7 606 -2 645 -3 11 -8 56 -11 100 -4 44 -9 91 -11 105 -2 14 -7 50
-10 80 -4 30 -8 64 -10 75 -5 42 -18 131 -21 150 -2 11 -13 70 -24 130 -11 61
-22 121 -25 135 -2 14 -10 50 -16 80 -6 30 -19 89 -29 130 -11 41 -21 86 -24
100 -9 47 -44 185 -90 347 -291 1039 -786 2085 -1313 2773 -146 191 -327 386
-473 510 -41 35 -81 70 -88 77 -7 7 -17 13 -20 13 -4 0 -19 11 -34 25 -14 13
-67 51 -116 83 -276 182 -565 277 -865 286 -48 1 -88 2 -90 1z"/>
<path d="M3920 5309 l0 -154 -1347 0 -1348 0 -105 -210 c-58 -115 -115 -232
-127 -260 -12 -27 -34 -77 -48 -110 -15 -33 -35 -79 -46 -102 -10 -23 -19 -44
-19 -48 0 -3 -9 -24 -19 -48 -38 -82 -211 -538 -211 -555 0 -4 735 -7 1633 -7
l1632 0 5 -152 5 -152 488 487 487 488 -485 484 c-267 267 -488 487 -490 489
-3 2 -5 -65 -5 -150z"/>
</g>
</svg>
